<svg width="19" height="19" viewBox="0 0 19 19" fill="none" xmlns="http://www.w3.org/2000/svg">
<path d="M1.5 0.660609C1.03976 0.660609 0.666667 1.0337 0.666667 1.49394C0.666667 1.95418 1.03976 2.32728 1.5 2.32728V0.660609ZM3.41045 1.49394L4.2148 1.2761C4.11642 0.912844 3.78679 0.660609 3.41045 0.660609V1.49394ZM6.51493 12.9566L5.71057 13.1745C5.81913 13.5753 6.20623 13.835 6.61829 13.7835L6.51493 12.9566ZM16.0672 11.7626L16.1705 12.5895C16.5244 12.5453 16.811 12.2807 16.8832 11.9314L16.0672 11.7626ZM17.5 4.83723L18.3161 5.00607C18.3668 4.76064 18.3045 4.50539 18.1462 4.31104C17.9879 4.11669 17.7506 4.00389 17.5 4.00389V4.83723ZM4.31592 4.83723L3.51156 5.05507L4.31592 4.83723ZM1.5 2.32728H3.41045V0.660609H1.5V2.32728ZM6.61829 13.7835L16.1705 12.5895L15.9638 10.9357L6.41156 12.1297L6.61829 13.7835ZM16.8832 11.9314L18.3161 5.00607L16.684 4.66839L15.2511 11.5938L16.8832 11.9314ZM2.60609 1.71179L3.51156 5.05507L5.12028 4.61938L4.2148 1.2761L2.60609 1.71179ZM3.51156 5.05507L5.71057 13.1745L7.31928 12.7388L5.12028 4.61938L3.51156 5.05507ZM17.5 4.00389H4.31592V5.67056H17.5V4.00389ZM8.66667 16.0833C8.66667 16.3135 8.48012 16.5 8.25 16.5V18.1667C9.4006 18.1667 10.3333 17.2339 10.3333 16.0833H8.66667ZM8.25 16.5C8.01988 16.5 7.83333 16.3135 7.83333 16.0833H6.16667C6.16667 17.2339 7.09941 18.1667 8.25 18.1667V16.5ZM7.83333 16.0833C7.83333 15.8532 8.01988 15.6667 8.25 15.6667V14C7.09941 14 6.16667 14.9327 6.16667 16.0833H7.83333ZM8.25 15.6667C8.48012 15.6667 8.66667 15.8532 8.66667 16.0833H10.3333C10.3333 14.9327 9.4006 14 8.25 14V15.6667ZM15.3333 16.0833C15.3333 16.3135 15.1468 16.5 14.9167 16.5V18.1667C16.0673 18.1667 17 17.2339 17 16.0833H15.3333ZM14.9167 16.5C14.6866 16.5 14.5 16.3135 14.5 16.0833H12.8333C12.8333 17.2339 13.7661 18.1667 14.9167 18.1667V16.5ZM14.5 16.0833C14.5 15.8532 14.6866 15.6667 14.9167 15.6667V14C13.7661 14 12.8333 14.9327 12.8333 16.0833H14.5ZM14.9167 15.6667C15.1468 15.6667 15.3333 15.8532 15.3333 16.0833H17C17 14.9327 16.0673 14 14.9167 14V15.6667Z" fill="#3B944E"/>
</svg>
